<svg xmlns="http://www.w3.org/2000/svg" xmlns:xlink="http://www.w3.org/1999/xlink" version="1.0" x="0" y="0" width="2400" height="1401.3369923052046" viewBox="69.51841262817383 66.32976058959962 200.96317474365233 117.34047119140625" preserveAspectRatio="xMidYMid meet" color-interpolation-filters="sRGB"><g><defs><linearGradient id="92" x1="0%" y1="0%" x2="100%" y2="0%"><stop offset="0%" stop-color="#fa71cd"></stop> <stop offset="100%" stop-color="#9b59b6"></stop></linearGradient><linearGradient id="93" x1="0%" y1="0%" x2="100%" y2="0%"><stop offset="0%" stop-color="#f9d423"></stop> <stop offset="100%" stop-color="#f83600"></stop></linearGradient><linearGradient id="94" x1="0%" y1="0%" x2="100%" y2="0%"><stop offset="0%" stop-color="#0064d2"></stop> <stop offset="100%" stop-color="#1cb0f6"></stop></linearGradient><linearGradient id="95" x1="0%" y1="0%" x2="100%" y2="0%"><stop offset="0%" stop-color="#f00978"></stop> <stop offset="100%" stop-color="#3f51b1"></stop></linearGradient><linearGradient id="96" x1="0%" y1="0%" x2="100%" y2="0%"><stop offset="0%" stop-color="#7873f5"></stop> <stop offset="100%" stop-color="#ec77ab"></stop></linearGradient><linearGradient id="97" x1="0%" y1="0%" x2="100%" y2="0%"><stop offset="0%" stop-color="#f9d423"></stop> <stop offset="100%" stop-color="#e14fad"></stop></linearGradient><linearGradient id="98" x1="0%" y1="0%" x2="100%" y2="0%"><stop offset="0%" stop-color="#009efd"></stop> <stop offset="100%" stop-color="#2af598"></stop></linearGradient><linearGradient id="99" x1="0%" y1="0%" x2="100%" y2="0%"><stop offset="0%" stop-color="#ffcc00"></stop> <stop offset="100%" stop-color="#00b140"></stop></linearGradient><linearGradient id="100" x1="0%" y1="0%" x2="100%" y2="0%"><stop offset="0%" stop-color="#d51007"></stop> <stop offset="100%" stop-color="#ff8177"></stop></linearGradient><linearGradient id="102" x1="0%" y1="0%" x2="100%" y2="0%"><stop offset="0%" stop-color="#a2b6df"></stop> <stop offset="100%" stop-color="#0c3483"></stop></linearGradient><linearGradient id="103" x1="0%" y1="0%" x2="100%" y2="0%"><stop offset="0%" stop-color="#7ac5d8"></stop> <stop offset="100%" stop-color="#eea2a2"></stop></linearGradient><linearGradient id="104" x1="0%" y1="0%" x2="100%" y2="0%"><stop offset="0%" stop-color="#00ecbc"></stop> <stop offset="100%" stop-color="#007adf"></stop></linearGradient><linearGradient id="105" x1="0%" y1="0%" x2="100%" y2="0%"><stop offset="0%" stop-color="#b88746"></stop> <stop offset="100%" stop-color="#fdf5a6"></stop></linearGradient></defs><g fill="#444" class="bordersvg b-d1" transform="translate(71.71135357022285,68.29999618237616)"><path fill-opacity="0" stroke="#444" stroke-width="3" d="M 103.4000015258789 24.869998931884766 A 56.70000076293945 56.70000076293945 0 1 0 103.4000015258789 88.53000259399414"></path> <g transform="translate(10,24.869998931884766)"><g><rect stroke-width="2" class="i-icon-bg" x="0" y="0" width="186.8000030517578" height="63.660003662109375" fill-opacity="0"></rect> </g> <g transform="translate(10,3)"><g fill-rule="" class="tp-name"><g transform="scale(1)"><g><path d="M25.44-15.54L25.44-15.54Q25.44-20.4 23.25-23.1 21.06-25.8 16.2-25.8L16.2-25.8Q15.18-25.8 14.07-25.71 12.96-25.62 11.88-25.32L11.88-25.32 11.88-7.38Q12.84-6.72 14.43-6.15 16.02-5.58 17.82-5.58L17.82-5.58Q21.78-5.58 23.61-8.28 25.44-10.98 25.44-15.54ZM32.88-15.66L32.88-15.66Q32.88-12.06 31.95-9.06 31.02-6.06 29.28-3.9 27.54-1.74 24.93-0.54 22.32 0.66 19.02 0.66L19.02 0.66Q16.8 0.66 14.94 0.12 13.08-0.42 11.88-1.08L11.88-1.08 11.88 11.1 4.62 11.1 4.62-30.36Q6.84-30.96 10.08-31.5 13.32-32.04 16.92-32.04L16.92-32.04Q20.64-32.04 23.58-30.9 26.52-29.76 28.59-27.63 30.66-25.5 31.77-22.47 32.88-19.44 32.88-15.66ZM51.42-5.1L51.42-5.1Q54.78-5.1 56.52-5.46L56.52-5.46 56.52-13.5Q55.92-13.68 54.78-13.86 53.64-14.04 52.26-14.04L52.26-14.04Q51.06-14.04 49.83-13.86 48.6-13.68 47.61-13.2 46.62-12.72 46.02-11.85 45.42-10.98 45.42-9.66L45.42-9.66Q45.42-7.08 47.04-6.09 48.66-5.1 51.42-5.1ZM50.82-32.16L50.82-32.16Q54.42-32.16 56.88-31.26 59.34-30.36 60.81-28.74 62.28-27.12 62.91-24.81 63.54-22.5 63.54-19.74L63.54-19.74 63.54-0.72Q61.86-0.36 58.47 0.15 55.08 0.66 50.82 0.66L50.82 0.66Q48 0.66 45.66 0.12 43.32-0.42 41.67-1.62 40.02-2.82 39.09-4.74 38.16-6.66 38.16-9.48L38.16-9.48Q38.16-12.18 39.21-14.04 40.26-15.9 42.06-17.07 43.86-18.24 46.23-18.75 48.6-19.26 51.18-19.26L51.18-19.26Q52.38-19.26 53.7-19.11 55.02-18.96 56.52-18.6L56.52-18.6 56.52-19.8Q56.52-21.06 56.22-22.2 55.92-23.34 55.17-24.21 54.42-25.08 53.19-25.56 51.96-26.04 50.1-26.04L50.1-26.04Q47.58-26.04 45.48-25.68 43.38-25.32 42.06-24.84L42.06-24.84 41.16-30.72Q42.54-31.2 45.18-31.68 47.82-32.16 50.82-32.16ZM91.56-30.96L90.3-24.84Q89.4-25.14 87.81-25.47 86.22-25.8 84.12-25.8L84.12-25.8Q82.92-25.8 81.57-25.56 80.22-25.32 79.68-25.14L79.68-25.14 79.68 0 72.42 0 72.42-29.88Q74.52-30.66 77.67-31.35 80.82-32.04 84.66-32.04L84.66-32.04Q85.38-32.04 86.34-31.95 87.3-31.86 88.26-31.71 89.22-31.56 90.12-31.35 91.02-31.14 91.56-30.96L91.56-30.96ZM103.92-31.38L103.92 0 96.66 0 96.66-31.38 103.92-31.38ZM104.7-40.56L104.7-40.56Q104.7-38.52 103.38-37.32 102.06-36.12 100.26-36.12L100.26-36.12Q98.4-36.12 97.08-37.32 95.76-38.52 95.76-40.56L95.76-40.56Q95.76-42.66 97.08-43.86 98.4-45.06 100.26-45.06L100.26-45.06Q102.06-45.06 103.38-43.86 104.7-42.66 104.7-40.56ZM124.2-5.1L124.2-5.1Q127.56-5.1 129.3-5.46L129.3-5.46 129.3-13.5Q128.7-13.68 127.56-13.86 126.42-14.04 125.04-14.04L125.04-14.04Q123.84-14.04 122.61-13.86 121.38-13.68 120.39-13.2 119.4-12.72 118.8-11.85 118.2-10.98 118.2-9.66L118.2-9.66Q118.2-7.08 119.82-6.09 121.44-5.1 124.2-5.1ZM123.6-32.16L123.6-32.16Q127.2-32.16 129.66-31.26 132.12-30.36 133.59-28.74 135.06-27.12 135.69-24.81 136.32-22.5 136.32-19.74L136.32-19.74 136.32-0.72Q134.64-0.36 131.25 0.15 127.86 0.66 123.6 0.66L123.6 0.66Q120.78 0.66 118.44 0.12 116.1-0.42 114.45-1.62 112.8-2.82 111.87-4.74 110.94-6.66 110.94-9.48L110.94-9.48Q110.94-12.18 111.99-14.04 113.04-15.9 114.84-17.07 116.64-18.24 119.01-18.75 121.38-19.26 123.96-19.26L123.96-19.26Q125.16-19.26 126.48-19.11 127.8-18.96 129.3-18.6L129.3-18.6 129.3-19.8Q129.3-21.06 129-22.2 128.7-23.34 127.95-24.21 127.2-25.08 125.97-25.56 124.74-26.04 122.88-26.04L122.88-26.04Q120.36-26.04 118.26-25.68 116.16-25.32 114.84-24.84L114.84-24.84 113.94-30.72Q115.32-31.2 117.96-31.68 120.6-32.16 123.6-32.16ZM152.46 0L145.2 0 145.2-45.36 152.46-46.56 152.46-31.02Q153.66-31.44 155.25-31.74 156.84-32.04 158.4-32.04L158.4-32.04Q162.18-32.04 164.67-30.99 167.16-29.94 168.66-28.05 170.16-26.16 170.79-23.52 171.42-20.88 171.42-17.64L171.42-17.64 171.42 0 164.16 0 164.16-16.5Q164.16-19.02 163.83-20.79 163.5-22.56 162.75-23.67 162-24.78 160.74-25.29 159.48-25.8 157.62-25.8L157.62-25.8Q156.18-25.8 154.68-25.5 153.18-25.2 152.46-24.96L152.46-24.96 152.46 0Z" transform="translate(-4.619999885559082, 46.560001373291016)"></path></g> </g></g> </g></g></g><defs v-gra="od"></defs></g></svg>